<?xml version="1.0" standalone="no"?><!DOCTYPE svg PUBLIC "-//W3C//DTD SVG 1.1//EN" "http://www.w3.org/Graphics/SVG/1.1/DTD/svg11.dtd"><svg t="1601542398540" class="icon" viewBox="0 0 1024 1024" version="1.1" xmlns="http://www.w3.org/2000/svg" p-id="4417" xmlns:xlink="http://www.w3.org/1999/xlink" width="200" height="200"><defs><style type="text/css"></style></defs><path d="M105.932 123.586h70.62v35.31h-70.62zM105.932 564.966h70.62v35.31h-70.62z" fill="#5B5D6E" p-id="4418"></path><path d="M971.034 609.19c0 12.312-12.152 20.856-23.696 16.574-41.286-15.316-135.676-43.142-276.442-43.142-189.746 0-244.666 67.414-494.08 70.51-9.808 0.122-17.92-7.886-17.92-17.692V88.128c0-9.692 7.936-17.496 17.628-17.616C426.19 67.468 481.076 0 670.896 0c141.74 0 236.46 28.212 277.292 43.458 13.816 5.156 22.846 18.308 22.846 33.054v532.678z" fill="#FF4B4B" p-id="4419" data-spm-anchor-id="a313x.7781069.0.i1" class="selected"></path><path d="M105.932 1024H70.62a17.658 17.658 0 0 1-17.656-17.656V70.62c0-19.502 15.808-35.31 35.31-35.31 19.502 0 35.31 15.808 35.31 35.31v935.724A17.65 17.65 0 0 1 105.932 1024zM347.61 175.334l18.626 55.852 58.874 0.456c7.622 0.06 10.782 9.786 4.652 14.314L382.4 280.932l17.758 56.132c2.3 7.268-5.976 13.278-12.178 8.848l-47.898-34.236-47.898 34.236c-6.202 4.432-14.476-1.58-12.178-8.848l17.758-56.132-47.362-34.974c-6.13-4.528-2.97-14.254 4.652-14.314l58.874-0.456 18.626-55.852c2.418-7.234 12.646-7.234 15.056-0.002zM561.4 189.096l13.356 18.214 21.558-6.74c2.792-0.872 5.086 2.308 3.378 4.684l-13.196 18.33 13.072 18.418c1.692 2.386-0.624 5.55-3.41 4.658l-21.51-6.886-13.478 18.124c-1.746 2.346-5.474 1.122-5.486-1.804l-0.1-22.586-21.402-7.216c-2.772-0.934-2.758-4.858 0.02-5.774l21.448-7.074 0.252-22.584c0.032-2.92 3.77-4.122 5.498-1.764zM480.08 134.804l22.452 2.44 9.578-20.454c1.24-2.648 5.138-2.194 5.736 0.668l4.616 22.108 22.414 2.79c2.902 0.362 3.674 4.208 1.136 5.66l-19.6 11.222 4.274 22.178c0.554 2.872-2.866 4.796-5.032 2.83l-16.73-15.172-19.772 10.918c-2.56 1.414-5.446-1.244-4.246-3.912l9.26-20.6-16.494-15.43c-2.136-1.996-0.5-5.562 2.408-5.246zM515.576 353.688l-13.356 18.214-21.556-6.74c-2.792-0.872-5.086 2.308-3.378 4.684l13.196 18.33-13.072 18.418c-1.692 2.386 0.624 5.55 3.41 4.658l21.51-6.886 13.478 18.124c1.746 2.346 5.474 1.122 5.486-1.804l0.1-22.586 21.402-7.216c2.772-0.934 2.758-4.858-0.02-5.774l-21.448-7.074-0.252-22.584c-0.036-2.922-3.772-4.12-5.5-1.764zM596.894 302.67l-22.452 2.44-9.578-20.454c-1.24-2.648-5.138-2.194-5.736 0.668l-4.616 22.108-22.414 2.79c-2.902 0.362-3.674 4.208-1.136 5.66l19.6 11.222-4.274 22.178c-0.554 2.872 2.866 4.796 5.032 2.83l16.73-15.172 19.772 10.918c2.56 1.414 5.446-1.244 4.246-3.912l-9.26-20.6 16.494-15.43c2.136-1.996 0.5-5.562-2.408-5.246z" fill="#FFCF65" p-id="4420"></path><path d="M88.276 35.31c-19.5 0-35.31 15.808-35.31 35.31v35.31h70.62V70.62c0-19.502-15.81-35.31-35.31-35.31z" fill="#FFB450" p-id="4421"></path></svg>